<svg width="103" height="100" fill="none" xmlns="http://www.w3.org/2000/svg"><g clip-path="url(#clip0)"><path d="M51.492 0C23.456 0 .727 22.386.727 50s22.729 50 50.765 50c28.037 0 50.765-22.386 50.765-50S79.529 0 51.492 0zm17.546 52.65L43.656 68.275a3.21 3.21 0 01-3.22.083 3.116 3.116 0 01-1.635-2.733v-31.25c0-1.137.626-2.182 1.634-2.733a3.206 3.206 0 013.22.083L69.038 47.35A3.118 3.118 0 0170.529 50a3.118 3.118 0 01-1.491 2.65z" fill="#D4C17F"/></g><defs><clipPath id="clip0"><path fill="#fff" transform="translate(.727)" d="M0 0h101.53v100H0z"/></clipPath></defs></svg>